<svg xmlns="http://www.w3.org/2000/svg" xmlns:xlink="http://www.w3.org/1999/xlink" width="1366" zoomAndPan="magnify" viewBox="0 0 1024.5 576" height="768" preserveAspectRatio="xMidYMid meet" version="1.0"><defs><clipPath id="3a1aae5f0c"><path d="M 0 0.140625 L 1024 0.140625 L 1024 575.859375 L 0 575.859375 Z M 0 0.140625 " clip-rule="nonzero"/></clipPath><clipPath id="9c88c4d3d0"><path d="M 0 90.441406 L 1024 90.441406 L 1024 462.257812 L 0 462.257812 Z M 0 90.441406 " clip-rule="nonzero"/></clipPath></defs><g clip-path="url(#3a1aae5f0c)"><path fill="#ffffff" d="M 0 0.140625 L 1024 0.140625 L 1024 575.859375 L 0 575.859375 Z M 0 0.140625 " fill-opacity="1" fill-rule="nonzero"/><path fill="#ffffeb" d="M 0 0.140625 L 1024 0.140625 L 1024 575.859375 L 0 575.859375 Z M 0 0.140625 " fill-opacity="1" fill-rule="nonzero"/></g><g clip-path="url(#9c88c4d3d0)"><path fill="#fefeec" d="M 0 90.441406 L 1024 90.441406 L 1024 462.257812 L 0 462.257812 Z M 0 90.441406 " fill-opacity="1" fill-rule="nonzero"/></g><path fill="#5fa95f" d="M 497.636719 189.292969 L 498.816406 189.285156 C 499.796875 189.289062 500.78125 189.324219 501.761719 189.363281 L 502.328125 189.933594 C 502.386719 190.742188 502.402344 191.554688 502.402344 192.363281 L 502.410156 193.964844 L 502.40625 195.746094 L 502.414062 197.617188 C 502.417969 199.707031 502.417969 201.796875 502.417969 203.886719 L 502.425781 208.359375 C 502.433594 211.578125 502.4375 214.796875 502.441406 218.019531 C 502.449219 223.105469 502.460938 228.191406 502.472656 233.28125 L 502.484375 238.5 L 502.488281 239.816406 C 502.5 245.226562 502.511719 250.636719 502.523438 256.046875 C 502.539062 263.382812 502.550781 270.722656 502.558594 278.058594 C 502.570312 285.589844 502.585938 293.117188 502.605469 300.648438 C 502.621094 305.292969 502.628906 309.941406 502.628906 314.585938 C 502.632812 318.148438 502.640625 321.707031 502.65625 325.265625 C 502.660156 326.730469 502.660156 328.191406 502.65625 329.652344 C 502.65625 331.644531 502.664062 333.636719 502.675781 335.628906 L 502.664062 337.390625 C 502.6875 339.71875 502.722656 341.351562 503.707031 343.488281 C 505.234375 345.335938 506.945312 346.011719 509.15625 346.847656 C 514 348.167969 518.589844 347.996094 523.554688 347.59375 C 524.609375 347.523438 524.609375 347.523438 525.6875 347.457031 C 529.1875 347.195312 531.625 346.800781 534.753906 345.140625 L 535.894531 345.140625 C 535.953125 325.875 535.992188 306.605469 536.019531 287.335938 L 536.019531 286.109375 C 536.03125 279.550781 536.046875 272.996094 536.070312 266.4375 C 536.089844 259.707031 536.101562 252.976562 536.105469 246.246094 C 536.109375 242.464844 536.117188 238.6875 536.132812 234.90625 C 536.148438 231.351562 536.15625 227.792969 536.152344 224.234375 C 536.152344 222.929688 536.15625 221.625 536.164062 220.316406 C 536.175781 218.535156 536.171875 216.75 536.167969 214.96875 L 536.1875 213.40625 C 536.160156 210.394531 535.660156 208.261719 534.195312 205.617188 C 532.785156 203.414062 530.878906 201.988281 528.605469 200.734375 C 525.703125 199.480469 522.78125 199.332031 519.644531 199.203125 L 518.257812 199.027344 C 517.445312 197.40625 517.613281 196 517.617188 194.195312 L 517.613281 192.1875 C 517.6875 190.5 517.6875 190.5 518.257812 189.363281 C 523.445312 189.210938 528.425781 189.09375 533.511719 190.214844 C 540.253906 191.640625 547.824219 192.027344 554.523438 190.214844 L 555.902344 189.738281 C 558.390625 189.160156 560.675781 188.808594 563.199219 189.363281 C 564.796875 190.597656 565.738281 192.136719 566.792969 193.839844 C 567.421875 194.789062 568.054688 195.734375 568.6875 196.679688 L 569.644531 198.152344 C 571.121094 200.394531 572.707031 202.550781 574.292969 204.714844 C 574.910156 205.566406 575.527344 206.417969 576.140625 207.273438 L 577.066406 208.550781 L 602.949219 244.367188 L 604.800781 246.929688 C 606.335938 249.050781 607.871094 251.175781 609.402344 253.304688 C 612.59375 257.734375 615.8125 262.148438 619.058594 266.542969 C 621.796875 270.246094 624.503906 273.972656 627.171875 277.726562 C 629.78125 281.390625 632.425781 285.027344 635.0625 288.671875 C 636.011719 289.988281 636.964844 291.304688 637.914062 292.621094 L 638.863281 293.9375 L 640.609375 296.359375 C 642.613281 299.136719 644.636719 301.898438 646.664062 304.660156 L 647.542969 305.855469 L 649.671875 308.753906 C 649.765625 295.492188 649.832031 282.226562 649.878906 268.960938 C 649.898438 262.804688 649.925781 256.644531 649.972656 250.484375 C 650.011719 245.117188 650.035156 239.75 650.046875 234.378906 C 650.050781 231.535156 650.0625 228.695312 650.09375 225.851562 C 650.121094 223.175781 650.128906 220.5 650.121094 217.824219 C 650.121094 216.84375 650.128906 215.859375 650.144531 214.878906 C 650.34375 209.683594 650.34375 209.683594 648.804688 204.832031 C 647.410156 203.191406 646.03125 202.085938 644.210938 200.949219 C 639.953125 199.542969 635.945312 199.207031 631.464844 199.027344 L 631.464844 189.363281 C 641.449219 189.136719 641.449219 189.136719 645.296875 190.214844 C 651.445312 191.851562 658.671875 191.867188 664.816406 190.214844 L 666.5 189.742188 C 670.675781 188.929688 675.015625 189.242188 679.253906 189.363281 L 679.253906 199.027344 L 675.34375 199.171875 C 671.574219 199.378906 668.382812 200.039062 665.03125 201.871094 C 663.503906 202.886719 662.5 203.628906 661.554688 205.1875 C 660.984375 206.574219 660.902344 207.566406 660.898438 209.0625 L 660.886719 210.671875 L 660.890625 212.433594 C 660.886719 213.363281 660.886719 213.363281 660.878906 214.3125 C 660.871094 216.394531 660.867188 218.476562 660.867188 220.558594 L 660.851562 225.03125 C 660.835938 228.242188 660.828125 231.457031 660.824219 234.667969 C 660.816406 239.3125 660.800781 243.957031 660.785156 248.597656 C 660.757812 256.132812 660.738281 263.667969 660.71875 271.203125 C 660.703125 278.523438 660.683594 285.84375 660.660156 293.160156 L 660.65625 294.527344 L 660.636719 301.316406 C 660.578125 320.09375 660.523438 338.871094 660.480469 357.648438 C 657.640625 358.59375 654.707031 358.394531 651.734375 358.429688 L 649.773438 358.496094 C 647.992188 358.511719 646.3125 358.480469 644.550781 358.21875 C 642.871094 357.054688 642.871094 357.054688 641.707031 355.375 L 640.988281 354.410156 C 640.171875 353.300781 639.390625 352.175781 638.613281 351.039062 C 636.074219 347.386719 633.476562 343.773438 630.828125 340.203125 C 628.074219 336.488281 625.355469 332.746094 622.671875 328.976562 C 618.128906 322.589844 613.503906 316.257812 608.84375 309.953125 C 605.660156 305.640625 602.519531 301.296875 599.386719 296.949219 C 597.851562 294.816406 596.3125 292.691406 594.773438 290.5625 L 592.925781 288.003906 L 592 286.722656 L 588.300781 281.609375 L 586.453125 279.050781 C 584.902344 276.90625 583.355469 274.761719 581.8125 272.613281 C 578.5625 268.089844 575.261719 263.601562 571.90625 259.152344 C 569.390625 255.808594 566.957031 252.40625 564.53125 248.992188 C 562.167969 245.675781 559.773438 242.375 557.378906 239.078125 C 556.679688 238.113281 555.980469 237.144531 555.285156 236.179688 C 554.191406 234.667969 553.097656 233.15625 552 231.648438 L 550.964844 230.207031 L 550.003906 228.890625 L 549.152344 227.714844 L 548.410156 226.886719 L 547.269531 226.886719 C 547.230469 241.960938 547.203125 257.03125 547.183594 272.105469 C 547.175781 279.105469 547.160156 286.101562 547.140625 293.101562 C 547.125 299.199219 547.113281 305.296875 547.109375 311.398438 C 547.109375 314.625 547.101562 317.855469 547.089844 321.085938 C 547.078125 324.125 547.074219 327.164062 547.078125 330.207031 C 547.078125 331.320312 547.074219 332.4375 547.066406 333.554688 C 547.058594 335.078125 547.058594 336.597656 547.066406 338.121094 L 547.050781 339.464844 C 547.066406 341.375 547.226562 342.773438 548.03125 344.523438 C 548.964844 345.839844 548.964844 345.839844 550.6875 346.71875 C 553.425781 347.742188 556.253906 347.714844 559.148438 347.769531 C 560.222656 347.800781 561.300781 347.828125 562.378906 347.863281 L 563.808594 347.894531 L 564.90625 347.984375 L 565.476562 348.550781 C 565.53125 350.074219 565.554688 351.578125 565.546875 353.101562 L 565.554688 354.394531 C 565.546875 355.476562 565.519531 356.5625 565.476562 357.648438 L 564.90625 358.21875 C 563.363281 358.277344 561.832031 358.300781 560.289062 358.300781 L 558.820312 358.304688 C 557.203125 358.308594 555.585938 358.3125 553.964844 358.3125 L 550.578125 358.320312 C 548.195312 358.320312 545.8125 358.324219 543.433594 358.324219 C 540.417969 358.324219 537.402344 358.332031 534.386719 358.339844 C 532.042969 358.34375 529.699219 358.347656 527.359375 358.347656 C 526.25 358.347656 525.140625 358.351562 524.03125 358.355469 C 505.808594 358.421875 505.808594 358.421875 498.347656 356.511719 C 497.5 356.460938 496.652344 356.433594 495.800781 356.429688 L 494.289062 356.417969 L 492.664062 356.417969 L 490.980469 356.410156 C 489.804688 356.40625 488.632812 356.40625 487.457031 356.40625 C 485.667969 356.40625 483.875 356.394531 482.085938 356.382812 C 480.941406 356.382812 479.796875 356.382812 478.65625 356.382812 L 477.042969 356.367188 C 474.042969 356.378906 471.609375 356.707031 468.765625 357.648438 C 464.09375 358.230469 459.351562 358.277344 454.648438 358.324219 L 453.300781 358.347656 C 452.195312 358.347656 451.09375 358.289062 449.992188 358.21875 L 448.851562 357.082031 C 448.722656 355.246094 448.722656 355.246094 448.746094 353.066406 L 448.757812 350.878906 L 448.851562 349.121094 L 449.421875 348.550781 C 450.253906 348.414062 451.089844 348.296875 451.929688 348.203125 L 453.496094 348.007812 C 454.582031 347.875 455.664062 347.746094 456.75 347.625 C 459.734375 347.242188 462.269531 346.636719 464.976562 345.3125 C 466.347656 344.238281 466.878906 343.324219 467.625 341.730469 C 467.875 339.890625 467.855469 338.070312 467.839844 336.214844 L 467.847656 334.523438 C 467.851562 332.648438 467.84375 330.773438 467.839844 328.898438 C 467.839844 327.558594 467.84375 326.214844 467.84375 324.871094 C 467.851562 321.222656 467.84375 317.574219 467.835938 313.925781 C 467.832031 310.5 467.832031 307.074219 467.832031 303.644531 C 467.835938 296.859375 467.828125 290.070312 467.816406 283.28125 C 467.808594 276.691406 467.804688 270.097656 467.804688 263.507812 C 467.8125 255.570312 467.808594 247.628906 467.800781 239.691406 L 467.800781 238.550781 C 467.796875 235.894531 467.796875 233.238281 467.800781 230.585938 C 467.800781 227.015625 467.796875 223.445312 467.785156 219.878906 C 467.785156 218.5625 467.785156 217.25 467.785156 215.9375 C 467.785156 214.152344 467.78125 212.367188 467.773438 210.582031 L 467.78125 208.988281 C 467.773438 207.75 467.707031 206.515625 467.625 205.28125 L 466.488281 204.144531 C 464.730469 203.898438 464.730469 203.898438 462.664062 203.824219 L 461.527344 203.761719 C 459.914062 203.671875 458.304688 203.597656 456.695312 203.519531 C 455.519531 203.457031 454.34375 203.394531 453.171875 203.328125 L 451.035156 203.222656 L 449.421875 203.007812 C 448.519531 201.203125 448.773438 199.265625 448.78125 197.289062 L 448.777344 196.003906 C 448.777344 194.925781 448.8125 193.851562 448.851562 192.773438 L 449.421875 192.207031 C 451.082031 192.136719 452.730469 192.101562 454.394531 192.085938 L 457.566406 192.042969 L 459.257812 192.019531 C 475.644531 191.851562 475.644531 191.851562 491.851562 189.628906 C 493.777344 189.257812 495.683594 189.28125 497.636719 189.292969 " fill-opacity="1" fill-rule="nonzero"/><path fill="#5ea85e" d="M 243.910156 233.53125 C 244.617188 233.535156 245.324219 233.539062 246.050781 233.542969 C 251.105469 233.609375 255.683594 233.96875 260.550781 235.414062 L 261.789062 235.773438 C 267.183594 237.371094 272.296875 239.171875 277.050781 242.238281 L 277.972656 242.832031 C 287.027344 248.75 293.863281 256.03125 298.792969 265.691406 C 302.808594 273.984375 305.339844 283.027344 305.492188 292.269531 L 305.527344 293.371094 C 305.886719 305.882812 303.921875 317.507812 298.097656 328.652344 L 297.175781 330.445312 C 293.296875 337.53125 288.078125 343.183594 281.601562 347.984375 L 280.144531 349.082031 C 272.335938 354.761719 263.574219 357.894531 254.039062 359.066406 C 241.820312 360.316406 229.707031 359.640625 218.371094 354.710938 C 208.84375 350.410156 200.574219 343.601562 194.195312 335.300781 C 188.539062 327.058594 185.09375 317.476562 183.75 307.617188 L 183.457031 306.289062 C 181.910156 297.800781 182.796875 288.105469 184.890625 279.761719 L 185.167969 278.578125 C 187.570312 268.515625 192.449219 259.867188 199.28125 252.125 C 207.0625 243.929688 216.820312 238.679688 227.550781 235.417969 C 233.015625 233.980469 238.261719 233.503906 243.910156 233.53125 M 137.917969 187.21875 C 139.46875 187.339844 141.015625 187.457031 142.566406 187.570312 L 145.570312 187.796875 L 146.945312 187.902344 C 148.992188 188.0625 151.023438 188.253906 153.054688 188.527344 C 155.417969 188.808594 157.734375 188.921875 160.105469 188.976562 L 161.425781 189.011719 C 162.800781 189.046875 164.175781 189.082031 165.546875 189.117188 L 168.363281 189.1875 C 170.648438 189.25 172.933594 189.308594 175.21875 189.363281 C 175.386719 193.445312 175.378906 196.652344 173.652344 200.378906 C 173.335938 201.109375 173.023438 201.839844 172.710938 202.570312 L 172.242188 203.660156 C 168.230469 213.371094 167.660156 224.101562 167.417969 234.464844 L 167.375 236.378906 L 167.34375 238.101562 L 167.253906 239.394531 L 166.683594 239.964844 C 165.246094 240.003906 163.820312 240.015625 162.382812 240 L 161.15625 239.992188 C 160.15625 239.984375 159.152344 239.972656 158.152344 239.964844 C 157.222656 237.917969 156.894531 236.300781 156.835938 234.066406 C 156.25 226.199219 152.746094 219.183594 148.480469 212.671875 C 144.835938 207.546875 140.457031 202.628906 134.828125 199.667969 C 129.6875 197.355469 125.132812 196.257812 119.46875 196.753906 C 114.925781 197.359375 110.898438 198.324219 107.054688 200.890625 C 104.183594 203.160156 102.039062 205.671875 100.445312 208.976562 C 98.8125 213.554688 99.203125 218.507812 99.824219 223.25 C 100.636719 227.394531 102.007812 230.449219 104.675781 233.710938 L 105.757812 235.066406 C 112.558594 243.113281 121.855469 248.46875 130.722656 253.933594 C 146.546875 263.699219 162.507812 274.011719 171.628906 290.703125 C 175.074219 297.238281 176.722656 303.609375 176.925781 311.027344 L 176.972656 312.789062 C 176.996094 314.480469 176.972656 316.160156 176.925781 317.851562 L 176.898438 319.367188 C 176.527344 326.527344 173.660156 332.777344 170.132812 338.875 C 168.9375 340.628906 167.652344 341.976562 166.117188 343.433594 L 164.914062 344.757812 C 159.578125 350.488281 152.96875 354.664062 145.503906 357.066406 C 142.992188 357.75 140.464844 358.371094 137.921875 358.929688 L 136.640625 359.210938 C 129.660156 360.625 122.542969 360.605469 115.449219 360.597656 L 114.089844 360.597656 C 107.765625 360.589844 101.507812 360.371094 95.207031 359.839844 C 87.3125 359.191406 79.402344 358.921875 71.488281 358.613281 L 68.242188 358.480469 L 66.707031 358.425781 C 65.519531 358.375 64.332031 358.304688 63.148438 358.21875 L 62.578125 357.648438 C 62.183594 354.46875 62.136719 351.449219 63.261719 348.421875 C 63.859375 347.207031 64.46875 346 65.085938 344.792969 C 66.652344 341.460938 67.476562 337.925781 68.265625 334.339844 L 68.558594 333.046875 C 69.601562 328 69.769531 322.914062 70.007812 317.78125 C 70.074219 316.410156 70.144531 315.035156 70.210938 313.667969 C 70.253906 312.820312 70.296875 311.972656 70.335938 311.125 C 70.382812 310.144531 70.460938 309.164062 70.542969 308.1875 L 71.113281 307.617188 C 72.546875 307.578125 73.980469 307.566406 75.414062 307.582031 L 76.640625 307.589844 C 77.640625 307.597656 78.644531 307.605469 79.644531 307.617188 C 80.484375 310.355469 81.011719 312.984375 81.421875 315.828125 C 82.300781 321.007812 84.460938 325.257812 87.039062 329.789062 L 87.964844 331.492188 C 91.746094 338 97.675781 343.554688 104.105469 347.414062 L 105.308594 348.136719 C 107.871094 349.542969 110.28125 350.132812 113.210938 350.257812 L 114.5 350.328125 C 119.519531 350.464844 124.679688 350.03125 129.28125 347.914062 C 133.207031 345.726562 136.476562 342.914062 138.988281 339.171875 C 141.488281 334.65625 142.851562 329.105469 143.039062 323.964844 C 142.902344 321.265625 142.429688 318.628906 141.617188 316.050781 C 140.804688 313.476562 139.675781 311.042969 138.242188 308.753906 C 136.648438 306.5625 134.925781 304.523438 133.121094 302.5 L 131.90625 301.121094 C 124.621094 293.363281 115.191406 287.824219 106.152344 282.359375 C 99.671875 278.433594 93.246094 274.5 87.371094 269.695312 C 86.75 269.183594 86.121094 268.679688 85.488281 268.175781 C 78.277344 262.445312 71.84375 255.5 68.167969 246.929688 C 64.976562 238.5625 64.550781 229.8125 65.585938 220.933594 C 66.582031 215.101562 69.238281 210.054688 72.894531 205.460938 C 79.230469 198.203125 86.316406 193.28125 95.417969 190.132812 C 109.234375 185.621094 123.597656 186.097656 137.917969 187.21875 " fill-opacity="1" fill-rule="nonzero"/><path fill="#5fa85e" d="M 739.875 233.53125 C 740.527344 233.535156 741.175781 233.539062 741.847656 233.542969 C 751.964844 233.683594 761.632812 235.765625 770.523438 240.746094 C 777.492188 245.089844 783.070312 250.273438 787.03125 257.515625 C 790.371094 264.28125 790.714844 270.789062 790.316406 278.222656 C 789.761719 284.824219 787.246094 290.976562 783.59375 296.46875 C 778.015625 303.972656 771.238281 308.90625 762.738281 312.59375 C 761.957031 312.921875 761.179688 313.246094 760.398438 313.570312 C 758.835938 314.230469 757.292969 314.933594 755.769531 315.683594 C 745.183594 320.3125 731.65625 321.882812 720.214844 321.261719 C 721.007812 327.085938 723 333.324219 726.507812 338.105469 C 727.050781 338.757812 727.605469 339.394531 728.175781 340.023438 L 729.492188 341.515625 C 733.039062 344.648438 736.636719 346.871094 741.261719 347.984375 C 743.167969 348.203125 745.035156 348.222656 746.949219 348.195312 L 748.394531 348.214844 C 754.042969 348.191406 758.820312 346.042969 763.769531 343.441406 C 768.761719 340.523438 772.507812 336.480469 775.394531 331.496094 C 776.613281 329.066406 777.726562 326.597656 778.808594 324.105469 L 779.378906 322.96875 C 782.746094 323.691406 785.441406 324.753906 788.480469 326.378906 C 787.996094 331.410156 784.996094 335.910156 782.222656 340.023438 C 776.660156 347.261719 769.902344 352.613281 761.535156 356.242188 C 752.332031 359.964844 741.609375 360.296875 731.816406 359.074219 C 729.4375 358.710938 727.101562 358.214844 724.765625 357.648438 L 723.550781 357.363281 C 714.890625 355.253906 707.605469 351.613281 700.871094 345.710938 L 699.566406 344.652344 C 695.96875 341.65625 693.28125 338.179688 690.632812 334.339844 L 689.691406 332.996094 C 683.53125 323.527344 680.980469 311.75 680.3125 300.605469 C 679.996094 292.835938 680.84375 285.605469 682.667969 278.054688 L 683.164062 275.980469 C 685.816406 266.382812 691.214844 257.417969 698.167969 250.339844 C 705.726562 242.9375 714.886719 238.023438 725.082031 235.296875 L 727.039062 234.847656 L 728.285156 234.542969 C 732.164062 233.667969 735.910156 233.511719 739.875 233.53125 " fill-opacity="1" fill-rule="nonzero"/><path fill="#5ea85e" d="M 358.398438 233.710938 L 358.96875 234.277344 C 359.027344 235.265625 359.046875 236.257812 359.050781 237.25 L 359.0625 239.207031 L 359.066406 241.371094 L 359.085938 244.816406 C 359.089844 246.058594 359.097656 247.296875 359.101562 248.539062 C 359.109375 251.136719 359.121094 253.734375 359.136719 256.332031 C 359.175781 263.71875 359.210938 271.109375 359.242188 278.5 C 359.257812 282.574219 359.277344 286.652344 359.300781 290.726562 C 359.316406 292.878906 359.324219 295.03125 359.328125 297.183594 C 359.007812 316.265625 359.007812 316.265625 362.382812 334.90625 L 362.917969 336.636719 C 363.867188 339.457031 364.753906 341.890625 366.933594 344.003906 C 368.296875 345.15625 369.429688 345.636719 371.171875 346 C 374.335938 346.414062 376.96875 346.363281 379.953125 345.175781 C 384.410156 342.941406 387.453125 339.546875 390.257812 335.476562 C 392.941406 330.9375 395.195312 325.675781 395.449219 320.34375 L 395.445312 318.726562 L 395.449219 316.859375 L 395.441406 314.828125 L 395.441406 312.675781 C 395.441406 310.734375 395.441406 308.789062 395.433594 306.847656 C 395.433594 304.816406 395.433594 302.785156 395.429688 300.753906 C 395.429688 296.90625 395.425781 293.0625 395.417969 289.214844 C 395.414062 284.835938 395.410156 280.457031 395.40625 276.078125 C 395.402344 267.070312 395.390625 258.066406 395.378906 249.058594 C 393.492188 248.429688 391.882812 248.316406 389.894531 248.1875 L 387.65625 248.035156 L 385.316406 247.886719 L 382.957031 247.730469 C 381.027344 247.601562 379.101562 247.476562 377.171875 247.355469 C 377.160156 245.660156 377.148438 243.964844 377.136719 242.273438 L 377.125 240.808594 L 377.117188 239.414062 L 377.109375 238.125 L 377.171875 237.121094 L 377.742188 236.550781 C 378.667969 236.476562 379.597656 236.429688 380.523438 236.410156 L 382.328125 236.359375 L 384.308594 236.308594 L 388.476562 236.179688 C 390.664062 236.117188 392.847656 236.054688 395.035156 236 C 402.828125 235.789062 410.519531 235.503906 418.234375 234.285156 C 421.035156 233.851562 423.730469 233.667969 426.570312 233.6875 L 428.566406 233.695312 L 430.082031 233.710938 L 430.085938 235.195312 C 430.117188 247.152344 430.160156 259.113281 430.214844 271.074219 C 430.242188 276.855469 430.261719 282.640625 430.277344 288.421875 C 430.289062 293.464844 430.308594 298.511719 430.335938 303.554688 C 430.351562 306.222656 430.359375 308.890625 430.363281 311.558594 C 430.367188 314.074219 430.378906 316.59375 430.394531 319.109375 C 430.402344 320.027344 430.402344 320.945312 430.402344 321.863281 C 430.394531 328.984375 430.726562 335.851562 434.0625 342.296875 L 434.0625 343.433594 C 435.671875 343.625 435.671875 343.625 437.476562 343.433594 C 438.9375 342.445312 439.613281 341.4375 440.394531 339.871094 C 440.964844 338.605469 441.507812 337.332031 442.027344 336.042969 C 444.109375 336.402344 445.941406 336.980469 447.894531 337.785156 L 449.414062 338.410156 L 450.558594 338.886719 C 450.425781 342.476562 449.445312 345.035156 447.628906 348.132812 C 444.890625 352.195312 441.707031 354.890625 437.367188 357.082031 C 431.558594 359.894531 425.597656 359.609375 419.269531 359.355469 C 415.042969 358.984375 411.527344 357.542969 407.894531 355.375 C 403.796875 352.460938 401.085938 348.414062 398.792969 344.003906 L 398.792969 342.867188 C 397.308594 344.332031 395.863281 345.800781 394.457031 347.339844 C 390.449219 351.667969 386.667969 354.246094 381.15625 356.511719 L 379.398438 357.234375 C 373.945312 359.339844 368.714844 359.488281 362.925781 359.375 C 361.960938 359.355469 360.992188 359.351562 360.023438 359.34375 C 354.257812 359.125 348.921875 357.078125 343.925781 354.277344 C 338.300781 350.660156 334.726562 346.851562 331.582031 340.980469 C 324.730469 327.6875 324.679688 312.933594 324.644531 298.308594 C 324.640625 296.304688 324.628906 294.300781 324.613281 292.296875 C 324.582031 287.332031 324.5625 282.371094 324.542969 277.40625 C 324.523438 273.175781 324.503906 268.941406 324.472656 264.710938 C 324.460938 262.734375 324.457031 260.757812 324.453125 258.78125 L 324.429688 255.1875 L 324.433594 253.519531 L 324.417969 252.007812 L 324.414062 250.691406 L 324.265625 249.628906 L 323.128906 248.492188 C 321.425781 248.234375 321.425781 248.234375 319.429688 248.152344 L 317.191406 248.015625 L 314.84375 247.886719 C 313.316406 247.800781 311.785156 247.710938 310.253906 247.617188 L 308.191406 247.503906 L 306.632812 247.355469 L 306.0625 246.785156 C 306.007812 245.175781 305.984375 243.5625 305.992188 241.953125 L 305.984375 240.578125 C 305.988281 239.425781 306.023438 238.273438 306.0625 237.121094 L 306.632812 236.550781 C 307.449219 236.492188 308.265625 236.457031 309.085938 236.453125 L 310.667969 236.429688 L 312.402344 236.410156 L 316.027344 236.355469 C 317.933594 236.328125 319.839844 236.304688 321.746094 236.28125 C 328.378906 236.199219 334.800781 236.097656 341.332031 234.847656 C 346.941406 234.050781 352.734375 233.253906 358.398438 233.710938 " fill-opacity="1" fill-rule="nonzero"/><path fill="#5fa95e" d="M 834.628906 233.53125 L 835.765625 233.53125 C 841.183594 233.546875 846.457031 233.929688 851.816406 234.726562 C 858.355469 235.65625 864.933594 235.886719 871.523438 236.183594 L 872.882812 236.246094 C 873.734375 236.285156 874.585938 236.324219 875.4375 236.355469 C 876.414062 236.402344 877.390625 236.472656 878.363281 236.550781 L 878.933594 237.121094 C 879.40625 239.464844 879.3125 241.585938 878.933594 243.941406 C 878.046875 246.296875 876.902344 248.515625 875.765625 250.753906 C 873.984375 254.28125 872.777344 257.65625 872.105469 261.566406 L 871.816406 263.148438 C 871.546875 264.921875 871.421875 266.628906 871.355469 268.421875 L 871.285156 270.332031 L 871.21875 272.296875 L 871.144531 274.304688 C 871.082031 275.933594 871.023438 277.5625 870.96875 279.191406 C 869.476562 279.222656 867.980469 279.246094 866.488281 279.261719 L 865.203125 279.292969 C 864.089844 279.300781 862.976562 279.25 861.867188 279.191406 L 860.726562 278.054688 C 860.609375 276.585938 860.546875 275.152344 860.515625 273.683594 C 860.234375 267.0625 858.898438 260.832031 855.46875 255.066406 C 852.964844 251.40625 850.371094 248.265625 846.398438 246.179688 C 841.957031 244.113281 837.089844 244.21875 832.285156 244.511719 C 830.078125 244.890625 828.550781 245.679688 826.703125 246.894531 C 825.515625 247.945312 824.957031 248.738281 824.320312 250.195312 C 823.742188 253.863281 823.65625 257.421875 824.914062 260.96875 C 828.828125 267.957031 835.824219 272.390625 842.167969 276.953125 L 843.503906 277.914062 C 845.757812 279.539062 848.011719 281.160156 850.265625 282.78125 C 852.394531 284.3125 854.523438 285.847656 856.644531 287.390625 C 857.460938 287.980469 858.277344 288.570312 859.097656 289.15625 C 867.453125 295.132812 874.40625 301.078125 878.933594 310.460938 C 881.6875 316.582031 882.277344 322.570312 881.777344 329.222656 C 881.113281 334.25 879.664062 338.75 876.65625 342.867188 C 871.914062 348.5 866.683594 353.042969 859.703125 355.632812 C 857.597656 356.375 855.476562 357.023438 853.332031 357.648438 L 852.039062 358.054688 C 845.945312 359.816406 839.101562 359.480469 832.816406 359.496094 L 831.628906 359.5 C 825.382812 359.503906 819.273438 359.0625 813.066406 358.300781 C 806.214844 357.46875 799.359375 357.238281 792.460938 357.082031 C 791.554688 355.269531 791.605469 353.550781 791.617188 351.542969 C 792.050781 348.632812 793.457031 346.269531 794.84375 343.710938 C 798.722656 336.265625 799.464844 328.289062 799.929688 320.054688 L 800.078125 317.585938 C 800.199219 315.589844 800.3125 313.59375 800.425781 311.597656 C 801.929688 311.582031 803.4375 311.570312 804.941406 311.5625 L 806.242188 311.546875 C 807.339844 311.542969 808.433594 311.566406 809.527344 311.597656 L 810.097656 312.167969 C 810.207031 313.316406 810.316406 314.46875 810.40625 315.625 C 811.097656 324.140625 813.402344 331.621094 818.0625 338.886719 C 820.972656 342.753906 824.164062 345.460938 828.335938 347.839844 C 831.558594 349.105469 835.125 349.179688 838.542969 349.121094 C 841.328125 348.699219 843.558594 347.644531 845.832031 345.992188 C 847.832031 344.109375 848.730469 342.011719 849.546875 339.417969 C 850.347656 335.828125 850.300781 332.414062 849.316406 328.867188 C 847.351562 323.746094 843.234375 320.140625 839.109375 316.714844 C 837.308594 315.355469 835.464844 314.074219 833.601562 312.804688 L 830.578125 310.71875 L 829.105469 309.703125 C 803.121094 291.757812 803.121094 291.757812 797.722656 281.261719 C 794.246094 273.917969 794.085938 266.167969 794.738281 258.15625 C 795.207031 255.632812 796.234375 253.511719 797.582031 251.332031 L 798.390625 249.933594 C 801.214844 245.367188 804.789062 242.023438 809.363281 239.226562 C 817.394531 235.074219 825.640625 233.492188 834.628906 233.53125 " fill-opacity="1" fill-rule="nonzero"/><path fill="#5ea85e" d="M 922.738281 208.125 C 924.261719 208.070312 925.765625 208.046875 927.289062 208.054688 L 928.582031 208.046875 C 929.667969 208.050781 930.753906 208.085938 931.839844 208.125 L 932.410156 208.695312 C 932.460938 209.566406 932.476562 210.441406 932.472656 211.316406 L 932.472656 213.003906 L 932.464844 214.84375 L 932.460938 216.714844 C 932.457031 218.695312 932.449219 220.675781 932.445312 222.65625 C 932.441406 223.996094 932.4375 225.335938 932.4375 226.675781 C 932.429688 229.96875 932.417969 233.261719 932.410156 236.550781 L 956.300781 236.550781 C 957.148438 238.242188 956.945312 239.789062 956.941406 241.667969 L 956.945312 243.835938 C 956.871094 245.648438 956.871094 245.648438 956.300781 246.785156 L 932.410156 246.785156 C 932.417969 258.15625 932.441406 269.527344 932.484375 280.902344 C 932.503906 286.179688 932.515625 291.460938 932.519531 296.742188 C 932.519531 301.347656 932.535156 305.953125 932.558594 310.558594 C 932.566406 312.992188 932.574219 315.429688 932.570312 317.867188 C 932.566406 320.164062 932.574219 322.460938 932.59375 324.757812 C 932.597656 325.597656 932.597656 326.4375 932.59375 327.277344 C 932.566406 332.015625 933.0625 335.996094 934.992188 340.382812 C 935.882812 341.832031 936.640625 342.566406 938.097656 343.433594 C 939.753906 343.765625 939.753906 343.765625 941.511719 343.433594 C 943.375 342.683594 943.375 342.683594 944.921875 341.160156 C 945.84375 339.511719 946.554688 337.820312 947.199219 336.042969 C 950.4375 336.667969 953.3125 337.488281 956.300781 338.886719 C 955.640625 342.742188 954.136719 345.90625 951.636719 348.925781 C 947.285156 353.460938 942.695312 356.238281 936.808594 358.351562 C 930.75 360.039062 922.78125 360.199219 916.644531 358.679688 C 912.398438 357.175781 908.644531 354.925781 905.582031 351.605469 C 901.453125 346.300781 899.40625 340.332031 898.273438 333.769531 C 897.988281 330.78125 897.957031 327.8125 897.972656 324.8125 C 897.96875 323.960938 897.964844 323.109375 897.957031 322.257812 C 897.945312 319.976562 897.945312 317.699219 897.949219 315.417969 C 897.949219 313.019531 897.933594 310.625 897.925781 308.230469 C 897.902344 303.707031 897.894531 299.183594 897.890625 294.660156 C 897.878906 288 897.863281 281.339844 897.835938 274.683594 L 897.832031 273.203125 L 897.820312 270.285156 C 897.808594 267.4375 897.804688 264.585938 897.800781 261.738281 C 897.796875 259.972656 897.792969 258.210938 897.789062 256.445312 C 897.789062 255.625 897.785156 254.804688 897.789062 253.984375 C 897.789062 252.871094 897.785156 251.757812 897.78125 250.640625 L 897.777344 248.75 L 897.707031 247.355469 L 897.136719 246.785156 C 895.917969 246.699219 894.695312 246.640625 893.472656 246.605469 L 891.222656 246.535156 L 888.851562 246.464844 L 886.476562 246.390625 C 884.53125 246.332031 882.585938 246.273438 880.640625 246.21875 C 880.625 244.710938 880.613281 243.207031 880.605469 241.703125 L 880.589844 240.402344 C 880.585938 239.308594 880.609375 238.214844 880.640625 237.121094 L 881.207031 236.550781 C 882.097656 236.4375 882.992188 236.351562 883.886719 236.289062 L 885.5625 236.15625 L 887.359375 236.019531 C 896.621094 235.246094 904.910156 234.050781 912.941406 228.96875 C 916.195312 226.53125 918.832031 223.230469 920.460938 219.496094 C 920.925781 217.640625 921.183594 215.777344 921.421875 213.882812 C 921.550781 212.910156 921.683594 211.941406 921.820312 210.972656 L 921.984375 209.6875 L 922.167969 208.695312 Z M 922.738281 208.125 " fill-opacity="1" fill-rule="nonzero"/><path fill="#fdfeec" d="M 249.675781 244.335938 C 252.84375 245.492188 255.503906 247.054688 257.707031 249.628906 C 264.140625 258.554688 266.859375 268.886719 268.089844 279.6875 C 269.882812 298.0625 269.726562 318.847656 262.5 336.085938 C 260.679688 339.820312 258.804688 343.265625 255.492188 345.863281 C 250.527344 349.050781 250.527344 349.050781 247.507812 349.316406 C 243.855469 349.472656 240.363281 349.582031 236.859375 348.453125 C 233.289062 346.535156 230.765625 344.042969 228.546875 340.671875 C 220.945312 326.988281 220.058594 310.9375 220.023438 295.621094 C 220.015625 294.164062 220.003906 292.703125 219.984375 291.246094 C 219.902344 278.847656 221.863281 265.882812 227.554688 254.746094 C 229.886719 250.785156 232.519531 247.433594 236.503906 245.0625 C 240.511719 243.214844 245.453125 243.324219 249.675781 244.335938 M 744.960938 244.582031 C 747.515625 246.496094 749.074219 248.558594 750.433594 251.40625 C 752.964844 257.683594 753.535156 263.757812 753.492188 270.449219 L 753.488281 271.742188 C 753.457031 278.355469 752.988281 284.425781 750.363281 290.5625 L 749.910156 291.660156 C 747.753906 296.777344 744.980469 301.179688 740.5625 304.625 C 739.3125 305.488281 738.027344 306.292969 736.710938 307.050781 L 735.65625 307.683594 C 731.347656 310.058594 726.136719 311.699219 721.207031 311.8125 L 719.074219 311.597656 L 717.9375 310.460938 C 717.152344 305.8125 717.253906 301.09375 717.261719 296.390625 L 717.261719 295.125 C 717.300781 281.875 717.421875 265.402344 724.195312 253.609375 C 726.382812 250.019531 728.539062 247.0625 732.238281 244.96875 C 736.109375 243.296875 740.996094 243.308594 744.960938 244.582031 " fill-opacity="1" fill-rule="nonzero"/><path fill="#e9f5e1" d="M 879.5 237.6875 L 880.640625 237.6875 L 880.640625 246.21875 L 879.5 245.078125 L 878.363281 246.785156 L 877.226562 246.21875 L 877.773438 245.265625 C 878.433594 243.785156 878.570312 242.605469 878.683594 240.992188 C 878.75 240.082031 878.828125 239.167969 878.933594 238.257812 Z M 879.5 237.6875 " fill-opacity="1" fill-rule="nonzero"/></svg>