<svg xmlns="http://www.w3.org/2000/svg" xmlns:xlink="http://www.w3.org/1999/xlink" width="500" zoomAndPan="magnify" viewBox="0 0 375 374.999991" height="500" preserveAspectRatio="xMidYMid meet" version="1.0"><defs><g/><clipPath id="f34c6eda38"><rect x="0" width="361" y="0" height="327"/></clipPath></defs><rect x="-37.5" width="450" fill="#ffffff" y="-37.499999" height="449.999989" fill-opacity="1"/><rect x="-37.5" width="450" fill="#ffffeb" y="-37.499999" height="449.999989" fill-opacity="1"/><g transform="matrix(1, 0, 0, 1, 5, 48)"><g clip-path="url(#f34c6eda38)"><g fill="#5ea85e" fill-opacity="1"><g transform="translate(0.179671, 248.843949)"><g><path d="M 122.03125 -29.78125 C 122.03125 -38.882812 120.441406 -46.742188 117.265625 -53.359375 C 114.097656 -59.984375 109.820312 -65.773438 104.4375 -70.734375 C 99.0625 -75.703125 93.03125 -80.21875 86.34375 -84.28125 C 79.65625 -88.351562 72.757812 -92.351562 65.65625 -96.28125 C 58.5625 -100.207031 51.671875 -104.410156 44.984375 -108.890625 C 38.296875 -113.367188 32.265625 -118.570312 26.890625 -124.5 C 21.515625 -130.4375 17.238281 -137.4375 14.0625 -145.5 C 10.894531 -153.570312 9.3125 -163.125 9.3125 -174.15625 C 9.3125 -189.175781 12.753906 -201.515625 19.640625 -211.171875 C 26.535156 -220.828125 35.910156 -228 47.765625 -232.6875 C 59.628906 -237.375 72.9375 -239.71875 87.6875 -239.71875 C 95.132812 -239.71875 101.890625 -239.40625 107.953125 -238.78125 C 114.023438 -238.164062 120.09375 -237.507812 126.15625 -236.8125 C 132.226562 -236.125 138.988281 -235.78125 146.4375 -235.78125 C 148.5 -235.78125 150.738281 -236.085938 153.15625 -236.703125 C 155.570312 -237.328125 157.332031 -238.332031 158.4375 -239.71875 L 160.5 -239.71875 L 160.5 -164.640625 L 158.4375 -164.640625 C 157.738281 -170.285156 155.875 -176.347656 152.84375 -182.828125 C 149.8125 -189.316406 145.914062 -195.660156 141.15625 -201.859375 C 136.40625 -208.066406 131.0625 -213.753906 125.125 -218.921875 C 119.195312 -224.097656 113.023438 -228.203125 106.609375 -231.234375 C 100.203125 -234.265625 93.828125 -235.78125 87.484375 -235.78125 C 79.628906 -235.78125 72.976562 -233.332031 67.53125 -228.4375 C 62.082031 -223.539062 59.359375 -216.613281 59.359375 -207.65625 C 59.359375 -198.96875 60.941406 -191.453125 64.109375 -185.109375 C 67.285156 -178.765625 71.597656 -173.210938 77.046875 -168.453125 C 82.492188 -163.703125 88.5625 -159.359375 95.25 -155.421875 C 101.9375 -151.492188 108.898438 -147.632812 116.140625 -143.84375 C 123.378906 -140.050781 130.34375 -135.914062 137.03125 -131.4375 C 143.71875 -126.957031 149.78125 -121.851562 155.21875 -116.125 C 160.664062 -110.40625 164.972656 -103.613281 168.140625 -95.75 C 171.316406 -87.894531 172.90625 -78.660156 172.90625 -68.046875 C 172.90625 -57.835938 170.90625 -48.351562 166.90625 -39.59375 C 162.90625 -30.84375 157.285156 -23.226562 150.046875 -16.75 C 142.816406 -10.269531 134.304688 -5.203125 124.515625 -1.546875 C 114.722656 2.109375 104.035156 3.9375 92.453125 3.9375 C 81.148438 3.9375 70.910156 3.070312 61.734375 1.34375 C 52.566406 -0.375 43.945312 -3.0625 35.875 -6.71875 C 27.8125 -10.375 19.785156 -15.097656 11.796875 -20.890625 L 11.796875 -99.078125 L 14.265625 -99.078125 C 14.265625 -96.179688 15.195312 -91.765625 17.0625 -85.828125 C 18.925781 -79.898438 21.582031 -73.210938 25.03125 -65.765625 C 28.476562 -58.328125 32.578125 -50.8125 37.328125 -43.21875 C 42.085938 -35.632812 47.363281 -28.601562 53.15625 -22.125 C 58.945312 -15.644531 65.113281 -10.40625 71.65625 -6.40625 C 78.207031 -2.40625 85 -0.40625 92.03125 -0.40625 C 99.757812 -0.40625 105.796875 -1.710938 110.140625 -4.328125 C 114.484375 -6.953125 117.550781 -10.472656 119.34375 -14.890625 C 121.132812 -19.304688 122.03125 -24.269531 122.03125 -29.78125 Z M 122.03125 -29.78125 "/></g></g></g><g fill="#5ea85e" fill-opacity="1"><g transform="translate(171.420691, 248.843949)"><g><path d="M 5.171875 -233.71875 L 5.171875 -235.78125 L 72.59375 -235.78125 L 170.640625 -67.625 L 170.640625 -81.078125 C 170.640625 -91.273438 169.945312 -102.023438 168.5625 -113.328125 C 167.1875 -124.640625 165.253906 -135.945312 162.765625 -147.25 C 160.285156 -158.5625 157.390625 -169.285156 154.078125 -179.421875 C 150.773438 -189.554688 147.085938 -198.65625 143.015625 -206.71875 C 138.953125 -214.789062 134.710938 -221.203125 130.296875 -225.953125 C 125.890625 -230.710938 121.410156 -233.300781 116.859375 -233.71875 L 116.859375 -235.78125 L 188.21875 -235.78125 L 188.21875 -233.71875 C 183.382812 -232.476562 179.929688 -229.613281 177.859375 -225.125 C 175.796875 -220.644531 174.765625 -214.546875 174.765625 -206.828125 L 174.765625 -28.953125 C 174.765625 -21.367188 175.796875 -15.300781 177.859375 -10.75 C 179.929688 -6.207031 183.382812 -3.3125 188.21875 -2.0625 L 188.21875 0 L 130.921875 0 L 22.75 -185.734375 L 22.75 -174.5625 C 22.75 -163.394531 23.40625 -151.601562 24.71875 -139.1875 C 26.03125 -126.78125 27.925781 -114.375 30.40625 -101.96875 C 32.882812 -89.5625 35.847656 -77.664062 39.296875 -66.28125 C 42.742188 -54.90625 46.535156 -44.597656 50.671875 -35.359375 C 54.804688 -26.128906 59.21875 -18.617188 63.90625 -12.828125 C 68.59375 -7.035156 73.488281 -3.445312 78.59375 -2.0625 L 78.59375 0 L 5.171875 0 L 5.171875 -2.0625 C 9.992188 -3.3125 13.4375 -6.207031 15.5 -10.75 C 17.570312 -15.300781 18.609375 -21.367188 18.609375 -28.953125 L 18.609375 -206.828125 C 18.609375 -214.546875 17.570312 -220.644531 15.5 -225.125 C 13.4375 -229.613281 9.992188 -232.476562 5.171875 -233.71875 Z M 5.171875 -233.71875 "/></g></g></g></g></g></svg>