<svg xmlns="http://www.w3.org/2000/svg" xmlns:xlink="http://www.w3.org/1999/xlink" width="500" zoomAndPan="magnify" viewBox="0 0 375 374.999991" height="500" preserveAspectRatio="xMidYMid meet" version="1.0"><defs><clipPath id="256aac26fa"><path d="M 69.863281 0 L 305.363281 0 L 305.363281 375 L 69.863281 375 Z M 69.863281 0 " clip-rule="nonzero"/></clipPath><clipPath id="a25cf5fc81"><path d="M 80 26 L 305.363281 26 L 305.363281 359 L 80 359 Z M 80 26 " clip-rule="nonzero"/></clipPath></defs><rect x="-37.5" width="450" fill="#ffffff" y="-37.499999" height="449.999989" fill-opacity="1"/><rect x="-37.5" width="450" fill="#ffffeb" y="-37.499999" height="449.999989" fill-opacity="1"/><g clip-path="url(#256aac26fa)"><rect x="-37.5" width="450" fill="#fefeec" y="-37.499999" height="449.999989" fill-opacity="1"/></g><g clip-path="url(#a25cf5fc81)"><path fill="#5ea85e" d="M 914.714844 32.265625 C 916.472656 33.484375 916.472656 33.484375 917.550781 35.648438 C 917.648438 37.199219 917.679688 38.757812 917.675781 40.316406 L 917.675781 43.308594 L 917.660156 46.613281 L 917.65625 50.109375 C 917.652344 54 917.636719 57.894531 917.625 61.785156 L 917.609375 70.125 C 917.597656 76.121094 917.582031 82.121094 917.566406 88.121094 C 917.542969 97.605469 917.527344 107.089844 917.515625 116.574219 L 917.5 128.761719 C 917.488281 138.847656 917.472656 148.933594 917.453125 159.019531 C 917.425781 172.695312 917.394531 186.367188 917.359375 200.042969 C 917.324219 214.082031 917.300781 228.117188 917.289062 242.152344 C 917.285156 250.8125 917.265625 259.472656 917.234375 268.128906 C 917.210938 274.769531 917.207031 281.40625 917.207031 288.046875 C 917.203125 290.769531 917.195312 293.492188 917.179688 296.214844 C 917.160156 299.929688 917.164062 303.644531 917.167969 307.359375 L 917.136719 310.628906 C 917.171875 316.792969 917.859375 321.132812 920.796875 326.585938 C 923.894531 329.78125 927.757812 331.414062 931.933594 332.839844 C 944.875 335.878906 962.144531 334.527344 974.859375 330.910156 C 977.835938 329.515625 977.835938 329.515625 980.265625 327.664062 C 981.722656 323.289062 981.511719 319.058594 981.511719 314.496094 L 981.527344 311.378906 C 981.542969 307.917969 981.546875 304.453125 981.554688 300.992188 L 981.582031 293.5625 C 981.609375 285.414062 981.625 277.269531 981.640625 269.121094 L 981.660156 260.710938 C 981.691406 246.019531 981.710938 231.332031 981.722656 216.640625 L 981.726562 214.363281 C 981.742188 202.1875 981.777344 190.011719 981.820312 177.835938 C 981.867188 165.328125 981.894531 152.820312 981.898438 140.3125 C 981.902344 133.292969 981.914062 126.273438 981.949219 119.25 C 981.980469 112.644531 981.992188 106.039062 981.976562 99.429688 C 981.976562 97.007812 981.988281 94.585938 982.003906 92.167969 C 982.03125 88.851562 982.019531 85.539062 982.003906 82.226562 L 982.046875 79.34375 C 981.96875 73.03125 980.410156 68.464844 977.515625 62.875 C 974.875 58.933594 971.445312 56.257812 967.289062 54.03125 C 962.691406 52.265625 958.238281 51.347656 953.367188 50.652344 L 949.59375 50.105469 L 946.746094 49.707031 C 946.6875 47.046875 946.644531 44.390625 946.609375 41.730469 C 946.59375 40.972656 946.574219 40.21875 946.558594 39.441406 C 946.539062 37.453125 946.632812 35.46875 946.746094 33.484375 L 948.910156 31.320312 C 958.398438 30.34375 967.765625 31.832031 977.089844 33.484375 C 989.234375 35.628906 1000.628906 36.761719 1012.769531 34.09375 L 1016.863281 33.214844 C 1020.269531 32.453125 1020.269531 32.453125 1023.515625 31.320312 C 1028.988281 30.519531 1028.988281 30.519531 1032.164062 31.320312 C 1035.019531 33.734375 1036.855469 36.703125 1038.855469 39.835938 C 1040.074219 41.636719 1041.296875 43.4375 1042.515625 45.238281 L 1044.375 48.042969 C 1047.222656 52.28125 1050.238281 56.398438 1053.25 60.523438 C 1055.007812 62.953125 1056.765625 65.386719 1058.519531 67.824219 L 1163.941406 213.832031 L 1167.445312 218.683594 C 1170.433594 222.816406 1173.414062 226.953125 1176.394531 231.09375 C 1181.691406 238.457031 1186.992188 245.816406 1192.390625 253.105469 L 1194.667969 256.1875 C 1196.335938 258.542969 1196.335938 258.542969 1198.675781 259.527344 C 1198.636719 234.398438 1198.570312 209.269531 1198.476562 184.136719 C 1198.433594 172.46875 1198.402344 160.800781 1198.382812 149.132812 C 1198.371094 138.964844 1198.339844 128.792969 1198.292969 118.625 C 1198.269531 113.238281 1198.253906 107.855469 1198.253906 102.46875 C 1198.253906 97.398438 1198.234375 92.332031 1198.199219 87.261719 C 1198.191406 85.402344 1198.1875 83.542969 1198.195312 81.683594 C 1198.203125 79.140625 1198.183594 76.601562 1198.15625 74.058594 L 1198.144531 69.753906 C 1197.816406 65.796875 1197.816406 65.796875 1195.511719 62.285156 C 1193.625 59.894531 1192.109375 58.171875 1189.621094 56.464844 L 1187.839844 55.199219 C 1182.433594 52.25 1176.738281 51.367188 1170.699219 50.652344 L 1162.996094 49.707031 L 1162.996094 31.320312 C 1172.191406 30.921875 1180.011719 31.511719 1188.945312 33.484375 C 1202.90625 36.476562 1214.542969 35.9375 1228.414062 32.871094 C 1236.722656 31.097656 1244.257812 30.980469 1252.738281 31.320312 L 1252.738281 49.707031 L 1248.550781 50.226562 C 1246.703125 50.480469 1244.855469 50.734375 1243.007812 50.992188 C 1242.101562 51.101562 1241.195312 51.210938 1240.257812 51.324219 C 1234.636719 52.128906 1230.378906 53.558594 1225.585938 56.609375 C 1222.632812 59.140625 1220.046875 61.449219 1218.140625 64.847656 C 1217.347656 68.75 1217.40625 72.582031 1217.449219 76.550781 L 1217.421875 80.128906 C 1217.398438 84.082031 1217.410156 88.039062 1217.425781 91.996094 C 1217.417969 94.828125 1217.40625 97.664062 1217.394531 100.5 C 1217.367188 106.605469 1217.359375 112.710938 1217.367188 118.8125 C 1217.378906 127.640625 1217.359375 136.464844 1217.332031 145.292969 C 1217.289062 159.613281 1217.273438 173.933594 1217.269531 188.253906 C 1217.269531 203.027344 1217.25 217.804688 1217.21875 232.582031 L 1217.191406 245.488281 C 1217.113281 281.171875 1217.070312 316.855469 1217.058594 352.542969 C 1212.375 354.882812 1206.390625 354.207031 1201.246094 354.367188 L 1197.433594 354.625 C 1193.609375 354.71875 1190.480469 354.613281 1186.785156 353.621094 C 1183.050781 350.511719 1180.664062 346.921875 1178.132812 342.808594 C 1177.238281 341.570312 1176.335938 340.34375 1175.417969 339.125 L 1173.066406 335.777344 L 1170.304688 331.871094 L 1168.847656 329.8125 C 1166.085938 325.925781 1163.289062 322.066406 1160.496094 318.203125 L 1155.070312 310.695312 C 1153.300781 308.25 1151.539062 305.800781 1149.777344 303.351562 C 1143.78125 295.015625 1137.734375 286.71875 1131.640625 278.453125 C 1124.945312 269.390625 1118.335938 260.273438 1111.753906 251.128906 C 1108.835938 247.074219 1105.910156 243.027344 1102.988281 238.976562 L 1099.472656 234.109375 L 1097.714844 231.679688 L 1090.6875 221.945312 L 1087.171875 217.074219 C 1084.253906 213.035156 1081.335938 208.992188 1078.425781 204.945312 C 1072.425781 196.605469 1066.375 188.300781 1060.277344 180.035156 C 1053.585938 170.96875 1046.972656 161.851562 1040.390625 152.707031 C 1037.472656 148.65625 1034.550781 144.605469 1031.625 140.558594 C 1028.019531 135.566406 1024.414062 130.570312 1020.816406 125.574219 L 1018.929688 122.957031 L 1015.390625 118.046875 C 1013.78125 115.8125 1012.164062 113.582031 1010.539062 111.355469 L 1008.765625 108.90625 L 1007.019531 106.53125 L 1005.453125 104.382812 C 1004.121094 102.554688 1004.121094 102.554688 1001.890625 101.621094 C 1001.8125 130.277344 1001.757812 158.933594 1001.722656 187.585938 C 1001.707031 200.890625 1001.679688 214.195312 1001.644531 227.5 C 1001.613281 239.097656 1001.59375 250.691406 1001.585938 262.289062 C 1001.582031 268.429688 1001.570312 274.570312 1001.546875 280.710938 C 1001.523438 286.488281 1001.515625 292.269531 1001.523438 298.046875 C 1001.523438 300.167969 1001.515625 302.289062 1001.503906 304.414062 C 1001.488281 307.308594 1001.488281 310.203125 1001.5 313.101562 L 1001.472656 315.644531 C 1001.503906 319.507812 1001.929688 322.355469 1003.375 325.953125 C 1004.984375 328.871094 1004.984375 328.871094 1007.703125 330.707031 C 1014.296875 333.691406 1021.453125 333.425781 1028.5625 333.726562 C 1035.1875 334.042969 1035.1875 334.042969 1037.570312 335.238281 C 1037.628906 337.894531 1037.671875 340.554688 1037.707031 343.210938 C 1037.726562 343.96875 1037.742188 344.722656 1037.761719 345.503906 C 1037.78125 347.488281 1037.683594 349.476562 1037.570312 351.460938 L 1035.410156 353.621094 C 1032.550781 353.832031 1029.6875 353.925781 1026.824219 353.902344 L 1024.132812 353.914062 C 1021.171875 353.925781 1018.214844 353.917969 1015.257812 353.910156 L 1009.046875 353.914062 C 1004.683594 353.917969 1000.320312 353.914062 995.960938 353.90625 C 990.441406 353.894531 984.921875 353.898438 979.40625 353.914062 C 936.746094 353.996094 936.746094 353.996094 917.617188 351.722656 C 914.398438 351.34375 911.167969 351.0625 907.941406 350.773438 C 905.023438 350.507812 902.109375 350.238281 899.191406 349.960938 C 883.570312 348.546875 867.980469 349.273438 852.542969 352.023438 C 843.941406 353.453125 835.292969 353.734375 826.59375 353.824219 L 824.144531 353.867188 C 822.121094 353.871094 820.097656 353.753906 818.078125 353.621094 L 815.914062 351.460938 C 815.757812 348.710938 815.714844 345.964844 815.78125 343.210938 L 815.808594 340.898438 C 815.835938 339.011719 815.875 337.125 815.914062 335.238281 L 817.859375 335.007812 C 820.820312 334.648438 823.773438 334.265625 826.726562 333.882812 L 829.789062 333.523438 C 836.460938 332.636719 841.46875 331.125 847.269531 327.664062 C 849.710938 324.515625 850.789062 321.78125 851.597656 317.929688 C 851.691406 316.433594 851.738281 314.9375 851.738281 313.4375 L 851.75 310.734375 L 851.746094 307.785156 L 851.757812 304.636719 C 851.765625 301.144531 851.769531 297.652344 851.769531 294.160156 L 851.785156 286.660156 C 851.800781 279.867188 851.808594 273.074219 851.8125 266.277344 C 851.816406 262.035156 851.820312 257.792969 851.824219 253.550781 C 851.839844 241.808594 851.847656 230.070312 851.851562 218.328125 L 851.851562 216.050781 L 851.855469 209.191406 L 851.855469 206.898438 C 851.863281 194.625 851.878906 182.347656 851.90625 170.074219 C 851.929688 157.472656 851.945312 144.875 851.945312 132.273438 C 851.945312 125.199219 851.953125 118.125 851.972656 111.046875 C 851.988281 104.398438 851.992188 97.746094 851.984375 91.097656 C 851.980469 88.652344 851.988281 86.207031 851.996094 83.761719 C 852.011719 80.433594 852.003906 77.105469 851.992188 73.777344 L 852.019531 70.816406 L 852 68.125 L 852 65.792969 C 851.734375 63.648438 851.734375 63.648438 850.109375 61.917969 C 848.367188 60.351562 848.367188 60.351562 845.816406 59.796875 C 842.90625 59.445312 839.984375 59.222656 837.054688 59.136719 L 833.734375 59.011719 L 826.84375 58.785156 L 823.539062 58.664062 L 820.519531 58.5625 C 818.078125 58.359375 818.078125 58.359375 815.914062 57.277344 C 815.886719 54.054688 815.863281 50.832031 815.847656 47.613281 L 815.820312 44.824219 L 815.808594 42.175781 L 815.792969 39.71875 L 815.914062 37.808594 L 816.996094 36.726562 C 820.03125 36.609375 823.066406 36.546875 826.101562 36.539062 C 828.0625 36.515625 830.019531 36.492188 831.980469 36.46875 L 835.128906 36.433594 C 854.269531 36.1875 873.09375 35.132812 892.097656 32.804688 L 894.492188 32.511719 C 896.59375 32.25 898.699219 31.976562 900.800781 31.699219 C 910.523438 30.722656 910.523438 30.722656 914.714844 32.265625 M 481.140625 128.128906 C 498.351562 137.105469 513.339844 150.242188 523.769531 166.597656 C 531.6875 179.371094 537.011719 191.824219 540.195312 206.53125 L 541 210.058594 C 542.625 218.9375 542.574219 227.878906 542.628906 236.882812 L 542.660156 240.722656 C 542.578125 262.554688 536.917969 283.523438 526.070312 302.46875 C 515.914062 319.355469 501.664062 332.84375 484.730469 342.894531 C 463.238281 354.488281 440.972656 356.527344 416.949219 356.089844 C 398.800781 355.515625 380.710938 349.929688 365.035156 340.644531 C 347.566406 329.324219 333.625 314.722656 323.503906 296.519531 C 320.152344 289.773438 317.546875 282.925781 315.296875 275.75 L 314.597656 273.582031 C 308.332031 253.117188 308.269531 226.472656 312.796875 205.585938 C 318.082031 184.035156 328.613281 164.53125 343.8125 148.398438 C 360.003906 133.109375 379.054688 123.808594 400.578125 118.65625 C 428.097656 112.132812 455.539062 116.710938 481.140625 128.128906 M 208.792969 26.792969 L 213.671875 27.097656 C 223.613281 27.734375 233.527344 28.570312 243.441406 29.503906 C 250.316406 30.097656 257.179688 30.375 264.078125 30.539062 L 266.839844 30.605469 C 271.417969 30.707031 275.996094 30.792969 280.578125 30.855469 L 285.621094 30.949219 L 287.988281 30.964844 C 289.886719 31.003906 291.78125 31.152344 293.671875 31.320312 L 295.832031 33.484375 C 296.507812 37.542969 296.273438 41.609375 295.183594 45.574219 C 294.300781 47.933594 293.332031 50.238281 292.320312 52.546875 C 283.847656 73.128906 281.621094 93.183594 281.066406 115.28125 L 280.960938 119.148438 L 280.882812 122.648438 C 280.695312 125.414062 280.695312 125.414062 279.613281 127.578125 L 262.316406 127.578125 C 260.730469 124.414062 260.8125 121.296875 260.492188 117.777344 C 258.546875 100.785156 251.863281 86.125 241.769531 72.417969 C 233.703125 61.78125 224 53.828125 211.78125 48.386719 C 202.238281 45.261719 191.117188 45.410156 181.261719 46.96875 C 177.480469 47.976562 173.867188 49.40625 170.421875 51.265625 C 166.976562 53.121094 163.792969 55.351562 160.871094 57.957031 C 155.90625 63.339844 152.980469 69.679688 151.214844 76.746094 L 150.945312 79.988281 L 150.777344 82.019531 C 150.378906 91 152.125 100.007812 155.632812 108.265625 C 164.773438 125.285156 181.167969 136.703125 197.171875 146.753906 C 201.347656 149.316406 205.542969 151.84375 209.75 154.363281 C 220 160.523438 229.875 167.136719 239.609375 174.085938 L 241.945312 175.75 C 262.4375 190.460938 280.785156 207.023438 291.507812 230.324219 C 298.167969 246.308594 300.371094 263.921875 298.402344 281.089844 C 296.132812 296.851562 290.328125 310.679688 280.695312 323.339844 C 271.039062 335.191406 257.242188 344.320312 242.988281 349.769531 C 227.363281 355.363281 210.648438 358.078125 194.089844 358.167969 L 191.289062 358.191406 C 188.269531 358.210938 185.253906 358.214844 182.234375 358.21875 L 179.074219 358.226562 C 161.175781 358.234375 143.488281 357.234375 125.664062 355.71875 L 123.070312 355.5 L 120.523438 355.28125 C 107.980469 354.242188 95.40625 353.910156 82.828125 353.621094 C 81.109375 350.523438 80.632812 348.914062 80.308594 345.242188 C 80.441406 340.273438 82.105469 336.441406 84.179688 331.992188 C 88.054688 323.128906 90.628906 314.417969 92.558594 304.953125 L 93.257812 301.53125 C 95.015625 291.265625 95.136719 280.90625 95.339844 270.507812 L 95.429688 266.78125 L 95.492188 263.417969 C 95.800781 260.609375 95.800781 260.609375 97.964844 257.363281 C 101.410156 257.011719 101.410156 257.011719 105.535156 257.09375 C 106.894531 257.109375 108.253906 257.125 109.65625 257.144531 C 113.101562 257.363281 113.101562 257.363281 115.265625 258.445312 C 115.773438 261.515625 116.179688 264.554688 116.550781 267.640625 C 118.597656 282.246094 123.742188 295.234375 132.324219 307.289062 C 141.988281 319.640625 152.597656 329.324219 166.746094 336.414062 C 175.214844 339.644531 184.925781 339.113281 193.769531 337.984375 C 202.269531 336.40625 208.800781 333.769531 215.820312 328.746094 L 218.792969 326.789062 C 225.269531 320.488281 228.542969 313.265625 231.214844 304.734375 C 233.726562 295.507812 234.417969 284.988281 232.445312 275.546875 C 227.742188 260.695312 218.121094 249.457031 207.035156 238.910156 C 191.90625 225.640625 174.296875 215.28125 157.183594 204.8125 C 133.148438 190.058594 110.144531 173.261719 95.289062 148.746094 C 89.671875 138.257812 86.527344 126.476562 86.070312 114.601562 L 85.941406 112.101562 C 85.527344 97.261719 88.394531 83.558594 95.257812 70.398438 C 102.800781 57.625 113.539062 48.277344 126.296875 41.023438 C 151.808594 27.222656 180.386719 24.832031 208.792969 26.792969 M 1422.902344 127.984375 C 1429.132812 131.21875 1434.46875 134.933594 1439.796875 139.476562 L 1443.039062 141.84375 C 1451.066406 148.640625 1457.765625 158.84375 1461.421875 168.675781 C 1465.769531 183.292969 1465.628906 196.867188 1462.175781 211.574219 C 1460.703125 217.4375 1459.027344 222.890625 1456.015625 228.164062 L 1454.402344 231 C 1445.933594 245.050781 1435.179688 254.738281 1420.960938 262.671875 C 1393.277344 276.941406 1362.824219 283.8125 1331.671875 283.320312 C 1333.246094 295.0625 1336.535156 305.804688 1343.292969 315.632812 C 1348.890625 322.820312 1355.195312 327.792969 1363.296875 331.925781 C 1372.789062 335.601562 1383.308594 335.171875 1393.300781 334.15625 C 1403.320312 332.246094 1411.976562 327.414062 1419.898438 321.101562 C 1431.507812 311.046875 1437.382812 300.582031 1443.039062 286.566406 C 1447.777344 287.179688 1451.570312 288.371094 1455.878906 290.421875 L 1459.046875 291.910156 L 1461.421875 293.054688 C 1456.277344 308.027344 1448.320312 322.367188 1436.550781 333.074219 C 1423.441406 344.257812 1409.308594 351.519531 1392.222656 354.703125 C 1369.910156 358.160156 1347.089844 356.257812 1325.855469 348.683594 C 1308.636719 341.863281 1294.136719 331.949219 1281.933594 317.929688 C 1268.769531 300.980469 1260.246094 281.230469 1256.820312 260.019531 C 1253.46875 234.878906 1255.339844 208.878906 1264.660156 185.203125 C 1272.375 167.148438 1283.847656 151.707031 1299.234375 139.476562 C 1316.929688 126.308594 1337.167969 118.71875 1358.964844 115.964844 C 1381.175781 114.417969 1402.863281 118.257812 1422.902344 127.984375 " fill-opacity="1" fill-rule="nonzero"/></g></svg>